<?xml version="1.0" encoding="UTF-8"?>
<!DOCTYPE svg PUBLIC "-//W3C//DTD SVG 1.1//EN" "http://www.w3.org/Graphics/SVG/1.1/DTD/svg11.dtd">
<!-- Creator: CorelDRAW -->
<svg xmlns="http://www.w3.org/2000/svg" xml:space="preserve" width="6.82666in" height="6.82666in" style="shape-rendering:geometricPrecision; text-rendering:geometricPrecision; image-rendering:optimizeQuality; fill-rule:evenodd; clip-rule:evenodd"
viewBox="0 0 6.82666 6.82666"
 xmlns:xlink="http://www.w3.org/1999/xlink">
 <defs>
  <style type="text/css">
   <![CDATA[
    .fil0 {fill:none}
    .fil1 {fill:#757575}
    .fil2 {fill:#BDBDBD}
   ]]>
  </style>
 </defs>
 <g id="Layer_x0020_1">
  <metadata id="CorelCorpID_0Corel-Layer"/>
  <g id="_486581072">
   <rect id="_486581456" class="fil0" width="6.82666" height="6.82666"/>
   <rect id="_486581144" class="fil0" x="0.853331" y="0.853331" width="5.12" height="5.12"/>
  </g>
  <path class="fil1" d="M4.70189 1.38582c-0.357776,-0.353602 -0.788012,-0.532488 -1.29076,-0.532488 -0.502618,0 -0.932685,0.178929 -1.28629,0.532488 -0.357949,0.353559 -0.536657,0.783669 -0.532492,1.29063 0,0.336413 0.0809331,0.638953 0.238634,0.911496 0.00850787,0.0127638 0.021185,0.0298701 0.0340394,0.051189l1.51207 2.3342 1.60598 -2.36412c0.166035,-0.276791 0.251311,-0.587673 0.251311,-0.932768 0,-0.506957 -0.179063,-0.93702 -0.532492,-1.29063l0 0z"/>
  <path class="fil2" d="M3.41123 1.85857c-0.242803,-0.00438976 -0.447394,0.0809764 -0.617768,0.255693 -0.170378,0.170287 -0.255476,0.374791 -0.255476,0.617591 0,0.242709 0.0850984,0.447217 0.255476,0.621933 0.170417,0.170331 0.374965,0.255472 0.617768,0.255472 0.242665,-4.33071e-005 0.447213,-0.0850945 0.621803,-0.255472 0.170374,-0.174717 0.25565,-0.379134 0.25565,-0.621933 0,-0.242799 -0.0852756,-0.447213 -0.25565,-0.617591 -0.174543,-0.174764 -0.379138,-0.259992 -0.621803,-0.25565l0 -4.33071e-005z"/>
 </g>
</svg>
